<svg width="1130" height="175" viewBox="0 0 1130 175" fill="none" xmlns="http://www.w3.org/2000/svg">
<path d="M57.0859 25L46.5391 75H71.5391L82.0859 25H57.0859ZM78.7656 97.0703L75.25 175H50.25L53.7656 100H41.2656L25.25 175H0.25L37.3594 0H87.3594C94.2604 0 99.6641 2.40885 103.57 7.22656C106.305 10.7422 107.672 14.7786 107.672 19.3359C107.672 21.1589 107.477 23.0469 107.086 25L96.5391 75C95.1068 81.901 91.3958 87.7604 85.4062 92.5781C83.3229 94.401 81.1094 95.8984 78.7656 97.0703ZM180.859 0H205.859L174.023 150C172.591 156.901 168.88 162.826 162.891 167.773C157.031 172.591 150.651 175 143.75 175H118.75C111.849 175 106.445 172.526 102.539 167.578C99.8047 164.062 98.4375 160.026 98.4375 155.469C98.4375 153.776 98.6328 151.953 99.0234 150L130.859 0H155.859L124.023 150H149.023L180.859 0ZM192.523 150L197.797 125H222.797L217.523 150H242.523L252.289 104.102L205.805 87.5L219.086 25C220.648 18.099 224.359 12.2396 230.219 7.42188C236.078 2.47396 242.458 0 249.359 0H274.359C281.26 0 286.664 2.40885 290.57 7.22656C293.305 10.7422 294.672 14.7786 294.672 19.3359C294.672 21.1589 294.477 23.0469 294.086 25L288.812 50H263.812L269.086 25H244.086L234.32 70.8984L280.805 87.5L267.523 150C266.091 156.901 262.38 162.826 256.391 167.773C250.531 172.591 244.151 175 237.25 175H212.25C205.349 175 199.945 172.526 196.039 167.578C193.305 164.062 191.938 160.026 191.938 155.469C191.938 153.776 192.133 151.953 192.523 150ZM367.859 0H392.859L355.75 175H330.75L346.766 100H321.766L305.75 175H280.75L317.859 0H342.859L327.039 75H352.039L367.859 0ZM529.859 0H554.859L517.75 175H492.75L508.766 100H483.766L467.75 175H442.75L479.859 0H504.859L489.039 75H514.039L529.859 0ZM616.523 150C615.091 156.901 611.38 162.826 605.391 167.773C599.531 172.591 593.151 175 586.25 175H561.25C554.349 175 548.945 172.526 545.039 167.578C542.305 164.062 540.938 160.026 540.938 155.469C540.938 153.776 541.133 151.953 541.523 150L568.086 25C569.648 18.099 573.359 12.2396 579.219 7.42188C585.078 2.47396 591.458 0 598.359 0H623.359C630.26 0 635.664 2.40885 639.57 7.22656C642.305 10.7422 643.672 14.7786 643.672 19.3359C643.672 21.1589 643.477 23.0469 643.086 25L616.523 150ZM618.086 25H593.086L566.523 150H591.523L618.086 25ZM716.859 0H741.859L710.023 150C708.591 156.901 704.88 162.826 698.891 167.773C693.031 172.591 686.651 175 679.75 175H654.75C647.849 175 642.445 172.526 638.539 167.578C635.805 164.062 634.438 160.026 634.438 155.469C634.438 153.776 634.633 151.953 635.023 150L666.859 0H691.859L660.023 150H685.023L716.859 0ZM780.086 25L769.539 75H794.539L805.086 25H780.086ZM801.766 97.0703L798.25 175H773.25L776.766 100H764.266L748.25 175H723.25L760.359 0H810.359C817.26 0 822.664 2.40885 826.57 7.22656C829.305 10.7422 830.672 14.7786 830.672 19.3359C830.672 21.1589 830.477 23.0469 830.086 25L819.539 75C818.107 81.901 814.396 87.7604 808.406 92.5781C806.323 94.401 804.109 95.8984 801.766 97.0703Z" fill="white"/>
<path d="M942.086 25L936.812 50H911.812L917.086 25C918.648 18.099 922.359 12.2396 928.219 7.42188C934.078 2.47396 940.458 0 947.359 0H972.359C979.26 0 984.664 2.40885 988.57 7.22656C991.305 10.7422 992.672 14.7786 992.672 19.3359C992.672 21.1589 992.477 23.0469 992.086 25L978.805 87.5L925.289 104.102L915.523 150H965.523L960.25 175H885.25L903.805 87.5L957.32 70.8984L967.086 25H942.086ZM978.75 175L984.023 150H1009.02L1003.75 175H978.75ZM1102.52 150C1101.09 156.901 1097.38 162.826 1091.39 167.773C1085.53 172.591 1079.15 175 1072.25 175H1047.25C1040.35 175 1034.95 172.526 1031.04 167.578C1028.3 164.062 1026.94 160.026 1026.94 155.469C1026.94 153.776 1027.13 151.953 1027.52 150L1054.09 25C1055.65 18.099 1059.36 12.2396 1065.22 7.42188C1071.08 2.47396 1077.46 0 1084.36 0H1109.36C1116.26 0 1121.66 2.40885 1125.57 7.22656C1128.3 10.7422 1129.67 14.7786 1129.67 19.3359C1129.67 21.1589 1129.48 23.0469 1129.09 25L1102.52 150ZM1104.09 25H1079.09L1052.52 150H1077.52L1104.09 25Z" fill="#FFFB00"/>
</svg>
